<svg xmlns="http://www.w3.org/2000/svg" viewBox="0 0 140 140" width="100%" height="100%" preserveAspectRatio="xMidYMid meet" color-interpolation-filters="sRGB">
  <rect x="0" y="0" width="100%" height="100%" fill="#ffffff" fill-opacity="0"/>
  <g fill="#667eea" transform="translate(20, 20)">
    <svg viewBox="0 0 60 60" x="0" y="0" width="100" height="100" style="overflow: visible;">
      <g mask="url(#iconMask)">
        <svg viewBox="5 5 90 90" width="60" height="60" style="overflow: visible;">
          <path d="M75.921,5H24.305C13.752,5,5,13.752,5,24.305v51.616C5,86.472,13.752,95,24.305,95h51.616C86.472,95,95,86.472,95,75.921V24.305C95,13.752,86.472,5,75.921,5z" fill="#667eea"/>
        </svg>
        <svg viewBox="0 0 32.8359375 53.296875" width="45" height="45" x="7.5" y="7.5">
          <path transform="translate(-6.5390625 53.296875)" d="M11.25-53.30L11.25-53.30L35.02-53.30Q39.38-53.30 39.38-48.87Q39.38-44.44 35.02-44.44L35.02-44.44L17.23-44.44L17.23-30.52L31.71-30.52Q36.14-30.52 36.14-26.09L36.14-26.09Q36.14-21.59 31.71-21.59L31.71-21.59L17.23-21.59L17.23-5.34Q17.23 0 11.88 0Q6.54 0 6.54-5.34L6.54-5.34L6.54-48.59Q6.54-50.70 7.84-52.00Q9.14-53.30 11.25-53.30Z" fill="#667eea"/>
        </svg>
      </g>
      <mask id="iconMask">
        <svg viewBox="5 5 90 90" width="60" height="60" style="overflow: visible;">
          <path d="M75.921,5H24.305C13.752,5,5,13.752,5,24.305v51.616C5,86.472,13.752,95,24.305,95h51.616C86.472,95,95,86.472,95,75.921V24.305C95,13.752,86.472,5,75.921,5z" fill="white"/>
        </svg>
        <svg viewBox="0 0 32.8359375 53.296875" width="45" height="45" x="7.5" y="7.5">
          <path transform="translate(-6.5390625 53.296875)" d="M11.25-53.30L11.25-53.30L35.02-53.30Q39.38-53.30 39.38-48.87Q39.38-44.44 35.02-44.44L35.02-44.44L17.23-44.44L17.23-30.52L31.71-30.52Q36.14-30.52 36.14-26.09L36.14-26.09Q36.14-21.59 31.71-21.59L31.71-21.59L17.23-21.59L17.23-5.34Q17.23 0 11.88 0Q6.54 0 6.54-5.34L6.54-5.34L6.54-48.59Q6.54-50.70 7.84-52.00Q9.14-53.30 11.25-53.30Z" fill="black"/>
        </svg>
      </mask>
    </svg>
  </g>
</svg>